<?xml version="1.0" encoding="UTF-8"?>
<!-- Generator: visioncortex VTracer 0.6.12 -->
<svg version="1.1" xmlns="http://www.w3.org/2000/svg" width="2048" height="2048">
<path d="M0 0 C0.9454467773437045 0.0018228149414198924 1.8908935546875227 0.003645629882839785 2.864990234375 0.005523681640625 C30.275745660666644 0.09364362295616502 56.86028386737462 2.8042633826785277 83.75 8.3125 C84.71405761718756 8.50569824218752 85.67811523437501 8.698896484374984 86.67138671875 8.89794921875 C107.22802860503259 13.069643193575075 127.4641015521837 19.041177174320126 146.75 27.3125 C148.2699485916919 27.937053344192577 149.79084235786388 28.55930969474167 151.3125 29.1796875 C161.7091078142936 33.44267460963715 171.80120162258845 38.093079289917455 181.75 43.3125 C182.48734375000004 43.69180664062503 183.22468749999996 44.07111328125001 183.984375 44.4619140625 C211.20305728486517 58.51652727251212 235.86920080987875 77.0379246779031 258.75 97.3125 C259.70648437499995 98.15683593749998 260.6629687499999 99.00117187499995 261.6484375 99.87109375 C274.551705465831 111.48403491924796 287.06091934301594 123.61448522106946 297.75 137.3125 C299.33011807568437 139.1694074664931 300.9136486615382 141.02341475940682 302.5 142.875 C320.9159129024306 165.01388294906383 335.6181746782322 189.76299212828167 348.75 215.3125 C348.96575683593755 215.73031738281247 348.96575683593755 215.73031738281247 350.0576171875 217.8447265625 C355.33440128439497 228.17643491379874 359.6287731179482 238.85420228532416 363.75 249.6875 C363.99414642333977 250.3284561157227 364.23829284667954 250.9694122314453 364.4898376464844 251.62979125976563 C368.6876783320711 262.7021321651249 368.6876783320711 262.7021321651249 369.75 268.3125 C347.1061132894531 268.6632335291001 324.46267563503125 268.9275728608235 301.8166217803955 269.0896825790405 C291.3009767295657 269.1669621290155 280.78702125526615 269.2722712959837 270.2724609375 269.444091796875 C261.1055130693994 269.593819012832 251.93978877368954 269.69042192298 242.7716521024704 269.7238274216652 C237.91842238769584 269.74335108428215 233.0686921731002 269.78905891472755 228.2165870666504 269.89845085144043 C223.64353986655715 270.00071063362896 219.07541138166755 270.031597873744 214.50132942199707 270.0091152191162 C212.82819745660663 270.01322368086926 211.1548918844503 270.0428314004762 209.48275184631348 270.10058212280273 C197.20096213551074 270.5037536937733 197.20096213551074 270.5037536937733 193.1223578453064 266.8573257923126 C190.11013840849535 263.27351457107875 187.8969908015788 259.3369482775529 185.7677628993988 255.18528378009796 C174.8717980513926 235.1356373959378 154.83357047519826 215.8620738198224 136.75 202.3125 C136.25371093750005 201.93287109375 136.25371093750005 201.93287109375 133.7421875 200.01171875 C88.01757328947929 165.76998276881818 29.047770500375123 150.9760527162009 -27.5830078125 158.91015625 C-44.70143925156424 161.492651216274 -61.06928656390096 165.11252276789412 -77.25 171.3125 C-77.73871582031256 171.49893066406253 -77.73871582031256 171.49893066406253 -80.2119140625 172.4423828125 C-117.6107638245478 186.91055096862067 -151.4952168512075 211.6090057918973 -176.25 243.3125 C-176.71841308593753 243.90981933593753 -177.18682617187505 244.50713867187505 -177.66943359375 245.12255859375 C-184.52100926143794 253.90302359896884 -190.70142095728897 262.84685153521536 -196.21630859375 272.52294921875 C-197.21534433547413 274.2525033016119 -198.2574117968678 275.9569798284109 -199.30078125 277.66015625 C-218.46502561407897 309.4765231068691 -226.7424391101723 348.9959720910201 -226.5625 385.8125 C-226.56067718505858 386.5931985473633 -226.55885437011716 387.37389709472654 -226.55697631835938 388.1782531738281 C-226.36017474659354 438.55368611870017 -210.30720509424668 490.74550013963426 -177.60009765625 529.7021484375 C-176.24167849535456 531.3224256138591 -174.90681963580096 532.9600161733508 -173.57421875 534.6015625 C-163.89838865427782 546.4088492707732 -153.2630530910567 556.8827049420578 -141.25 566.3125 C-140.4649609375 566.964765625 -139.679921875 567.61703125 -138.87109375 568.2890625 C-94.23594558503396 605.203138906611 -34.87951903129306 621.6184767274613 22.4375 616.5625 C71.92979743121214 611.5313462257807 119.16471285536932 590.394265915312 153.75 554.3125 C158.75000000000057 549.3124999999994 158.75000000000057 549.3124999999994 160.515625 547.6171875 C180.86457027877339 527.8290399257597 193.58888239198586 503.74029136221134 205.75 478.3125 C261.19000000000005 478.3125 316.6300000000001 478.3125 373.75 478.3125 C371.8192989938084 487.96600503095874 369.8429492826899 497.0153864493209 366.875 506.3125 C366.52203857421864 507.43535400390624 366.1690771484375 508.5582080078125 365.805419921875 509.715087890625 C364.79529031585116 512.9169514667996 363.77381228376976 516.1149908305251 362.75 519.3125 C362.26426650917074 520.8528467969096 361.7785815965194 522.3932089142663 361.29296875 523.93359375 C358.9200222294353 531.3208987874455 356.0277477769862 538.2828049582336 352.75 545.3125 C352.3403198242188 546.1928491210938 351.9306396484376 547.0731982421875 351.508544921875 547.980224609375 C348.320140878541 554.7888550164074 345.05048816457156 561.5575870082562 341.75 568.3125 C341.281748046875 569.2733349609375 340.81349609375 570.234169921875 340.3310546875 571.22412109375 C330.03718490896904 592.1597719290412 317.2312151889132 611.3454762595015 302.94873046875 629.76416015625 C301.91515155292336 631.0991820471204 300.8956558988775 632.4450856037845 299.87890625 633.79296875 C282.868151804812 656.1884224440246 263.01728752633744 676.8536321965742 240.62451171875 693.87939453125 C238.6450462843635 695.3927394257339 236.68315589526946 696.9270227785496 234.72265625 698.46484375 C224.7270059149298 706.2673506953272 214.43810643152744 713.4899874625232 203.75 720.3125 C203.12979980468754 720.7088867187499 202.50959960937496 721.1052734375 201.87060546875 721.513671875 C157.8899127135512 749.3468056504316 108.05069099551224 766.4663869013334 56.6875 773.75 C55.80125946044927 773.8758749389649 54.91501892089843 774.0017498779298 54.001922607421875 774.1314392089844 C36.678587867921806 776.5554534872513 19.54528497811407 777.5236839247209 2.0625 777.5 C1.1640435791016444 777.4990634155274 0.26558715820306134 777.4981268310548 -0.66009521484375 777.4971618652344 C-56.83972357563755 777.3709420569553 -111.43874425096396 766.3658645654441 -162.4765625 742.60009765625 C-165.0580058400119 741.4016353168818 -167.65088208618613 740.2337210725286 -170.25 739.07421875 C-187.64921919591075 731.2102660814066 -203.89950266678989 721.2030013599233 -219.62548828125 710.4150390625 C-222.16105022331794 708.694179770288 -224.74225752352527 707.0434622646235 -227.3125 705.375 C-238.37451881001095 697.9904351643627 -248.5867073193565 689.3810595906436 -258.643798828125 680.697509765625 C-259.7528363939597 679.7411987592441 -260.8676479918945 678.7915575404977 -261.987060546875 677.847412109375 C-267.8462549833324 672.8396117799575 -273.2875741022408 667.4271289833982 -278.722900390625 661.969970703125 C-280.3095994637334 660.3779103368806 -281.9015774189623 658.7912700980237 -283.494140625 657.205078125 C-288.95481587269524 651.7486634960305 -294.29126735035004 646.2353196358627 -299.25 640.3125 C-299.50148803710937 640.0143640136719 -299.50148803710937 640.0143640136719 -300.774169921875 638.505615234375 C-312.96493660337865 623.9314541943936 -324.6896263913462 608.9053052834124 -334.0810546875 592.3544921875 C-335.3661010183796 590.1096869428306 -336.6855629123176 587.8871455970425 -338.0078125 585.6640625 C-386.80650618901564 502.91354259535797 -399.5053780812082 404.23231933251725 -378.245849609375 296.161865234375 C-365.4717145207861 247.5947573315135 -344.2569835871302 200.69073673791263 -314.25 160.3125 C-313.7187451171875 159.5919140625 -313.187490234375 158.871328125 -312.64013671875 158.12890625 C-305.6499962838506 148.67861837959254 -298.344840323593 139.83338455115052 -290.25 131.3125 C-288.75283920476596 129.70101782360268 -287.2618323062637 128.08403368756228 -285.772216796875 126.465576171875 C-284.75872731732693 125.36496073225669 -283.7432669429048 124.26615686251682 -282.725830078125 123.169189453125 C-280.30051467468996 120.55313208081384 -277.89595467165725 117.92406728762808 -275.5390625 115.24609375 C-268.6959490770171 107.51623524086438 -261.2216219590141 100.85953552527394 -253.25 94.3125 C-252.27675781250002 93.50812500000006 -251.30351562500005 92.70375000000001 -250.30078125 91.875 C-248.49026741753096 90.38733100213665 -246.67393021355872 88.90671808329455 -244.8515625 87.43359375 C-243.18240472429875 86.07270385179311 -241.52956979075043 84.6913982083048 -239.8984375 83.28515625 C-220.44333969462127 66.70200145398678 -197.51208888948236 52.217225584290304 -174.388671875 41.32666015625 C-172.01428465503182 40.20072356815092 -169.6556985806185 39.044892090445444 -167.296875 37.88671875 C-128.7209678192179 19.050082056335725 -87.03028982942806 7.077442489044074 -44.3245849609375 2.534210205078125 C-42.85356293946029 2.3770025706851925 -41.382978571406284 2.215674984609052 -39.9127197265625 2.051483154296875 C-26.58338422349152 0.5744513247860255 -13.408007819808518 -0.05435276381865606 0 0 Z " fill="#3B5970" transform="translate(784.25,447.6875)"/>
<path d="M0 0 C128.70000000000005 0 257.4000000000001 0 390 0 C393.55612474711324 20.15137356697437 393.55612474711324 20.15137356697437 394.16796875 26.515625 C394.20765525817865 26.924590148925745 394.20765525817865 26.924590148925745 394.4084930419922 28.99420166015625 C395.368005638705 39.894387143998074 395.3470120134175 50.81592024607403 395.3125 61.75 C395.31167419433586 62.85864410400393 395.31084838867173 63.96728820800786 395.30999755859375 65.10952758789063 C395.2368087917512 107.94537200456455 395.2368087917512 107.94537200456455 390 128 C389.1901162719728 128.0080868530274 388.38023254394534 128.0161737060547 387.5458068847656 128.02450561523438 C379.9233226922029 128.10236039543383 372.30103244988163 128.18962294671428 364.6787815093994 128.2875270843506 C360.75984886851893 128.3375300209825 356.8409437114085 128.38385943218077 352.921875 128.421875 C349.14163767352466 128.45867770100585 345.36162809309076 128.5050234263599 341.5815849304199 128.55806350708008 C340.13749551666865 128.57663426673162 338.6933572354883 128.59173227983877 337.24919509887695 128.60334396362305 C335.23064936805895 128.6201599226796 333.212228118904 128.65033105469138 331.19384765625 128.68115234375 C330.04357086181653 128.6944760131836 328.89329406738284 128.70779968261718 327.7081604003906 128.72152709960938 C325 129 325 129 323 131 C322.364990234375 133.4130859375 322.364990234375 133.4130859375 321.80859375 136.484375 C321.69978881835937 137.05828979492185 321.69978881835937 137.05828979492185 321.149169921875 139.962646484375 C320.9143188476562 141.21247314453126 320.6794677734374 142.46229980468752 320.4375 143.75 C315.60075104304656 168.14370746361578 309.1331285452002 193.38635614873124 297.1796875 215.34375 C295.84048051644413 218.35918294310568 295.8595602190662 219.0093312528121 297 222 C298.455322265625 223.719970703125 298.455322265625 223.719970703125 300.31640625 225.42578125 C300.99896484374995 226.05806640624996 301.6815234374999 226.69035156250004 302.384765625 227.341796875 C303.1034179687499 227.99212890624995 303.82207031250005 228.6424609375 304.5625 229.3125 C304.90829101562485 229.63186523437503 304.90829101562485 229.63186523437503 306.658203125 231.248046875 C310.7824692316708 235.041756704715 314.9770495480634 238.7505267831657 319.202880859375 242.430419921875 C321.49113788851037 244.42895333313868 323.74786580974614 246.46090553044598 326 248.5 C331.43514501124514 253.39986557831946 336.91143733313584 258.2410418790387 342.50390625 262.9609375 C343.13006835937495 263.49162841796874 343.7562304687499 264.0223193359375 344.4013671875 264.569091796875 C345.6528490539249 265.6288865455374 346.9073044147274 266.6851822916583 348.1650390625 267.737548828125 C354.5610370020306 273.16066688140154 354.5610370020306 273.16066688140154 356 276 C356.0609670007693 281.93121821769887 352.5874634103452 286.5690544376473 349.5625 291.4375 C349.02334960937515 292.3191381835936 348.48419921874984 293.2007763671875 347.9287109375 294.109130859375 C340.76350211566887 305.7499593764196 333.1671305599298 317.0377017618057 325 328 C324.54866699218746 328.6098876953124 324.0973339843749 329.21977539062505 323.63232421875 329.84814453125 C317.29494090013964 338.41019820650877 310.85730842705516 346.84378161491895 304 355 C303.5523730468749 355.53254394531245 303.10474609375 356.0650878906249 302.6435546875 356.61376953125 C300.2752089024757 359.4285008715292 297.8983646149354 362.2353544453067 295.5078125 365.03125 C294.03383667916887 366.77614349506484 292.58075954325113 368.5397945795048 291.1796875 370.34375 C288.9985457824014 373.130129995257 287.6112042306411 374.8220119548132 284.15625 375.828125 C280.45705043212683 376.0295665606268 278.9705469992823 375.37285086795555 275.8125 373.5 C274.8534374999999 372.93796875 273.8943750000001 372.37593749999996 272.90625 371.796875 C269.266124643545 369.5462598602562 265.63792288546074 367.28320688510735 262.04296875 364.9609375 C258.58891656624564 362.73509129172703 255.11043603091343 360.55123426458476 251.625 358.375 C251.29596679687506 358.16915283203116 251.29596679687506 358.16915283203116 249.630859375 357.12744140625 C245.59124240305528 354.6041031991267 241.5400538724557 352.1004681312256 237.48046875 349.609375 C236.54058105468744 349.0313916015625 235.60069335937487 348.45340820312504 234.63232421875 347.85791015625 C232.7880485232413 346.72451891064657 230.94208420125324 345.593869684149 229.09423828125 344.46630859375 C224.8503147317315 341.8562111025517 220.794430680912 339.2523691550675 217 336 C213.58363261677027 337.48739804439947 211.26265691597132 339.45010476737957 208.5625 342 C203.1877961000539 346.9189541540443 197.53447751457634 351.356357139231 191.70654296875 355.712890625 C190.05063695708714 356.9618085782886 188.4170250672314 358.2355333160667 186.78515625 359.515625 C175.35718319639022 368.3327752259372 162.830276578336 375.38745716907033 150.35400390625 382.59228515625 C148 384 148 384 147 385 C147.51131234883314 392.4077935416317 149.1258323548318 399.4603113638193 150.8359375 406.671875 C151.1159561157226 407.8712872314454 151.39597473144522 409.0706994628906 151.68447875976563 410.30645751953125 C152.57644014947527 414.122133857604 153.4755633077882 417.93607960555687 154.375 421.75 C154.97183658896074 424.29676199198184 155.56819528070878 426.84363602972553 156.1640625 429.390625 C157.26703982770846 434.1032454718579 158.37306684434816 438.8151293211147 159.48193359375 443.5263671875 C159.60627777099603 444.0569573974608 159.60627777099603 444.0569573974608 160.23553466796875 446.7420654296875 C160.7695638582386 449.0179464770504 161.30698738330057 451.29303253973603 161.84698486328125 453.5675048828125 C162.118715209961 454.72246459960934 162.39044555664054 455.8774243164062 162.67041015625 457.0673828125 C162.91651031494143 458.10695129394526 163.16261047363287 459.1465197753905 163.41616821289063 460.21759033203125 C164.1467671141445 463.6994587248446 164.46046972036606 466.46973214386026 164 470 C161.45579213539804 473.51477604998695 157.356427818645 474.8832938471794 153.5 476.5625 C152.71592773437487 476.9054711914064 151.93185546874997 477.2484423828125 151.1240234375 477.601806640625 C125.0964594854081 488.78107964996707 98.04948773712113 497.58745330262127 70.375 503.625 C69.78207153320318 503.7550341796875 69.78207153320318 503.7550341796875 66.781494140625 504.4130859375 C65.68571044921873 504.6402832031249 64.58992675781246 504.86748046875005 63.4609375 505.1015625 C62.49978027343741 505.3008837890625 61.538623046875045 505.50020507812496 60.54833984375 505.70556640625 C57.98939596201717 506.0012251839248 56.3925409213457 505.9215762898043 54 505 C50.62506420596651 500.285164323559 48.73752689546268 494.39925379340957 46.72265625 489 C44.03294496531703 481.9594754383545 40.994946182662034 475.10861586990245 37.875 468.25 C36.730012579677805 465.7195429485937 35.58757281114117 463.18793904544555 34.4453125 460.65625 C34.15889892578116 460.0222528076172 33.872485351562545 459.38825561523436 33.577392578125 458.73504638671875 C30.097740165717596 451.02116249503865 26.712952489616328 443.2656740207649 23.33935546875 435.5048828125 C22.91283691406261 434.52874023437494 22.48631835937499 433.5525976562499 22.046875 432.546875 C21.860444335937473 432.11810058593755 21.860444335937473 432.11810058593755 20.9169921875 429.9482421875 C20 428 20 428 19 427 C17.58025594663536 426.983093762276 16.15959237514471 427.03789268117 14.7421875 427.12109375 C13.82219970703136 427.16959472656254 12.902211914062491 427.2180957031251 11.954345703125 427.26806640625 C10.938161621093741 427.3239794921874 9.921977539062482 427.379892578125 8.875 427.4375 C-13.082316529882519 428.49080917641254 -35.06053008160552 428.3696882000336 -57 427 C-63.62773158867981 439.3913342657561 -68.76461469870696 452.3508583085479 -74 465.375 C-75.72609452307688 469.6548918554324 -77.45557766572574 473.93340079540894 -79.1875 478.2109375 C-79.60024169921871 479.23121032714835 -80.01298339843743 480.2514831542969 -80.438232421875 481.30267333984375 C-83.80902687781804 489.6028758520629 -87.33868918073381 497.8241838286667 -91 506 C-102.24450882314909 504.68844636075823 -113.04068221522266 502.2689362999174 -124 499.5 C-124.43519958496086 499.3908425903319 -124.43519958496086 499.3908425903319 -126.6375732421875 498.83843994140625 C-151.15521708583765 492.65950121331343 -176.39390709988743 485.512188706934 -199 474 C-199.2243626847462 468.0275573258698 -198.3660567765828 462.51359524027635 -197.28515625 456.6484375 C-197.1975579071045 456.159907989502 -197.1975579071045 456.159907989502 -196.75425720214844 453.6876525878906 C-196.19601174482432 450.58238024071466 -195.62933037193784 447.47871547473324 -195.0625 444.375 C-194.68500138049558 442.28134828273187 -194.3080427226239 440.18759913063286 -193.931640625 438.09375 C-191.15417656169643 422.68239478062105 -191.15417656169643 422.68239478062105 -190.38450622558594 419.2757873535156 C-190.25761917114255 418.52477752685536 -190.13073211669916 417.7737677001953 -190 417 C-191.87824891424907 415.12175108575093 -195.03935275800563 415.608976026155 -197.5625 415.4375 C-198.76003906250003 415.35371093749995 -199.95757812500005 415.2699218749999 -201.19140625 415.18359375 C-202.11824218750007 415.12300781249996 -203.04507812499992 415.0624218749999 -204 415 C-200.76008207261793 411.67283114100087 -197.44188894485228 408.64493357491915 -193.8125 405.75 C-189.1836546010693 402.0046170293599 -184.72705587094924 398.1209786244506 -180.328125 394.109375 C-178.26846966583958 392.24324432810954 -176.17611105435844 390.42930211957446 -174.0625 388.625 C-166.79057098354428 382.28046274070357 -159.9858463525843 375.3459572145241 -153.7265625 368.00390625 C-151.7825895439671 365.74766614492114 -149.7667648242175 363.56636107225063 -147.75 361.375 C-142.69445644435973 355.7634321954315 -138.04621736739455 349.8758206358382 -133.4501953125 343.88720703125 C-132.4820892171217 342.6273652606651 -131.510064145182 341.37052545235383 -130.5341796875 340.11669921875 C-117.5743830064464 323.45715860069595 -105.0883509021321 305.105081735127 -96 286 C-94.45799109586574 286.415398317032 -92.91642449284427 286.83243832182325 -91.375 287.25 C-90.35406250000005 287.5245703124999 -89.33312500000011 287.79914062500006 -88.28125 288.08203125 C-86.18733158106397 288.66782985529767 -84.10228014373138 289.2870341119385 -82.03125 289.94921875 C-61.819529810302356 296.27788856187317 -40.334755561780185 298.23345589911105 -19.25 298.25 C-18.86255111694345 298.25033737182616 -18.86255111694345 298.25033737182616 -16.901824951171875 298.2520446777344 C23.030238917699307 298.1970000281592 62.373414244285414 286.73335887933194 96 265 C96.69206542968755 264.55511230468755 97.38413085937509 264.1102246093751 98.09716796875 263.65185546875 C107.15727957783088 257.7712434836076 115.17167585597417 251.45493368320876 123 244 C124.32679051111404 242.8465968852247 125.65967889140597 241.70015158612512 127 240.5625 C135.88114379395802 232.80739079750504 143.8038425642835 224.3342347723044 151 215 C151.41717285156255 214.45923828125 151.8343457031251 213.91847656250002 152.26416015625 213.361328125 C171.98191043775114 187.6164774425214 184.35273941895093 160.7564593765601 194 130 C192.03957494987912 128.03957494987912 188.2310948622826 128.84528375119316 185.55271911621094 128.84178161621094 C185.15822910100223 128.83931262761348 185.15822910100223 128.83931262761348 183.16187053918839 128.826818048954 C180.49780851201444 128.81136601698324 177.8337707154801 128.80306170749338 175.169677734375 128.794677734375 C173.26807438076958 128.7851052532917 171.3664731846102 128.77509555623283 169.46487426757813 128.76467895507813 C164.28536034163267 128.73755551270995 159.10583723343325 128.71658636430357 153.9262912273407 128.6966769695282 C148.51969638426613 128.67486313468044 143.11313007936405 128.6474520081474 137.70655822753906 128.62062072753906 C127.46076777527901 128.5706313980279 117.21496153616317 128.52571580211315 106.96914011240005 128.48259836435318 C93.12937949777233 128.42406556443348 79.28965638062141 128.3577453131071 65.44992923736572 128.29184818267822 C43.633311391173265 128.18817592159746 21.816661576885508 128.09495167090597 0 128 C0 85.75999999999999 0 43.51999999999998 0 0 Z " fill="#3B5970" transform="translate(1259,770)"/>
<path d="M0 0 C6.291778573521469 14.985964560566117 12.443730361901544 30.006394841327847 18.25 45.1875 C30.07031680699629 76.0703168069964 30.07031680699629 76.0703168069964 33 79 C34.833759488504484 79.08864036613784 36.6709585226065 79.1068808732075 38.5068359375 79.09765625 C39.09645111083978 79.09600463867184 39.09645111083978 79.09600463867184 42.08026123046875 79.087646484375 C43.36861877441402 79.07934814453125 44.656976318359284 79.0710498046875 45.984375 79.0625 C47.31943586605553 79.05809238695548 48.65449880451115 79.05427628894938 49.98956298828125 79.051025390625 C54.955865425585216 79.03764591118022 59.9221065663362 79.01372176063148 64.88836669921875 78.9896240234375 C69.06638506782451 78.96969267736779 73.24437777927733 78.95412146423593 77.42243194580078 78.94406127929688 C79.36576636577774 78.93768412348345 81.30907736202266 78.92511090244977 83.25238037109375 78.912353515625 C90.37691549802685 78.89301675499917 97.22107884091383 79.24085547305049 104.27813720703125 80.271728515625 C107 80 107 80 109.22598266601563 77.80526733398438 C110.79397792057284 75.32578430797997 112.08298687627666 72.99596268853003 113.22314453125 70.29931640625 C113.61100128173825 69.39291412353515 113.99885803222651 68.4865118408203 114.39846801757813 67.55264282226563 C114.80580169677728 66.57878631591797 115.21313537597644 65.60492980957031 115.6328125 64.6015625 C116.06955291748045 63.57557952880859 116.5062933349609 62.54959655761718 116.95626831054688 61.492523193359375 C118.3532837562725 58.20644626377566 119.73944906519932 54.915925023661885 121.125 51.625 C122.03310646013506 49.4814539160123 122.94195411803275 47.33822167879714 123.8515625 45.1953125 C124.30053894042976 44.13737487792969 124.7495153808593 43.079437255859375 125.21209716796875 41.98944091796875 C125.66030822753919 40.933316040039074 126.1085192871094 39.8771911621094 126.5703125 38.7890625 C126.79369293212903 38.26220855712893 126.79369293212903 38.26220855712893 127.92413330078125 35.59600830078125 C131.11843806395632 28.064981670009843 134.3203987183756 20.53739014359644 137.5546875 13.0234375 C137.97283721923827 12.042269592285152 138.39098693847654 11.061101684570303 138.82180786132813 10.050201416015625 C139.21045013427738 9.151110534667964 139.59909240722664 8.252019653320303 139.99951171875 7.32568359375 C140.338766784668 6.535679626464855 140.678021850586 5.74567565917971 141.02755737304688 4.931732177734375 C142 3 142 3 144 1 C176.5972914399565 0.14502456050581713 223.5349080732185 17.62230666024442 252 33 C253 33.99999999999994 253 33.99999999999994 253.160888671875 37.521728515625 C253.10049248430596 42.02903653650981 252.3538841630566 46.25262140622692 251.42578125 50.65234375 C251.26165740966803 51.461688690185554 251.09753356933606 52.27103363037111 250.92843627929688 53.10490417480469 C250.39701205172082 55.71730550971222 249.8548592897248 58.327349219770326 249.3125 60.9375 C248.94300370295468 62.743822042406464 248.5742744755546 64.55030115816373 248.206298828125 66.35693359375 C247.47728576890813 69.93220425934032 246.7446031439017 73.50668946794497 246.0087890625 77.08056640625 C244.70502334123807 83.42280206717226 243.4457510489467 89.7735893266314 242.1875 96.125 C240.53135148711044 104.43300426836356 238.82049960822633 112.7263473089551 237 121 C241.87494064020916 125.33416419072427 247.09718464138246 128.59974533618242 252.6875 131.9375 C263.262207914333 138.36551851707145 273.1892234432935 145.46881491459578 283 153 C283.515625 153.39251953124995 283.515625 153.39251953124995 286.125 155.37890625 C290.8400584141991 159.05176425252398 295.0685166217622 162.93144326274341 299.11328125 167.3359375 C301.3820055166316 169.3369241202589 303.0383070026244 170.33079303265401 306 171 C308.2265625 169.8671875 308.2265625 169.8671875 310.625 167.875 C315.52393580422677 164.05526901245867 320.5392871169388 160.65874138335448 325.8125 157.375 C327.45841690781185 156.3464878979205 329.10424771998214 155.31783800727135 330.75 154.2890625 C331.6020703125 153.75700195312504 332.45414062500004 153.22494140624997 333.33203125 152.6767578125 C337.062021012945 150.3325438948657 340.76674021162034 147.94959798974355 344.4736328125 145.569091796875 C351.6197292556053 140.99000987413865 358.77126369868483 136.4080728670242 366.0625 132.0625 C366.58392578124995 131.74861328125007 366.58392578124995 131.74861328125007 369.22265625 130.16015625 C372.452305202394 128.81106238381017 373.7536194680997 128.7604728878199 377 130 C383.6814635521023 135.07899871643554 388.790267256132 142.49904261737652 394 149 C395.41587223905094 150.70899181534242 396.8325470442651 152.41731901676553 398.25 154.125 C408.46925647342437 166.64091864253885 417.9975123045838 179.58636006835695 427 193 C427.89827999449903 194.3282315342267 428.7967172233714 195.6563567449101 429.6953125 196.984375 C432.1594200025479 200.6373621090887 434.5879951604188 204.3124574659738 437 208 C437.63421874999995 208.96164062499997 438.2684374999999 209.92328124999995 438.921875 210.9140625 C441.8415259579722 215.51598853375617 444.22094776580843 219.36583197188838 444 225 C442.0717278602924 228.35351676470896 439.4063893178766 230.52441160397984 436.5 233 C432.7488218567896 236.20035458686527 429.43749885099214 239.67254179024803 426.125 243.3125 C419.794869774104 250.26209860231302 413.3865871240314 257.08901695067414 406.26953125 263.24609375 C401.6751028312001 267.24321418743807 397.2839533673973 271.4234083673855 392.9375 275.6875 C392.1543945312501 276.43322265625 391.37128906249995 277.1789453125 390.564453125 277.947265625 C390.1973925781249 278.30852539062494 390.1973925781249 278.30852539062494 388.33984375 280.13671875 C387.6733178710938 280.7834252929688 387.0067919921876 281.4301318359376 386.320068359375 282.096435546875 C385 284 385 284 385.204833984375 286.0400390625 C386.4388138031022 289.08160798627716 387.76684130588865 292.0751385024604 389.125 295.0625 C391.92265882874494 301.34071075741974 394.48329937864946 307.68121866714887 396.875 314.125 C397.17293457031246 314.9178540039063 397.4708691406249 315.7107080078125 397.77783203125 316.527587890625 C398.0548193359375 317.2841870117188 398.331806640625 318.0407861328125 398.6171875 318.8203125 C398.86065917968745 319.4830517578125 399.1041308593749 320.14579101562504 399.35498046875 320.82861328125 C400.146158853041 323.49202756962404 400.5432269796838 326.25936187810294 401 329 C357.77 329 314.53999999999996 329 270 329 C268.68000000000006 326.69000000000005 268.68000000000006 326.69000000000005 262 315 C260.0954780355246 311.94241687203885 258.1904698097792 308.92626292472437 256.1875 305.9375 C255.67960937499993 305.1792895507813 255.17171875000008 304.42107910156255 254.6484375 303.639892578125 C249.89558100301997 296.6602402564897 244.66230024025162 290.2540892584168 239 284 C238.51531249999994 283.46036621093754 238.03062499999987 282.9207324218751 237.53125 282.36474609375 C234.07370070169463 278.5256508279558 230.5561997399834 274.7477237951289 227 271 C226.53593750000005 270.50725585937494 226.0718750000001 270.01451171875 225.59375 269.5068359375 C218.94411573522848 262.4841042956566 211.91267306429427 256.53823626885753 204 251 C203.30342285156257 250.50741699218747 202.60684570312492 250.01483398437495 201.88916015625 249.50732421875 C151.76583539333387 214.15968025914788 92.8857799896141 198.68553254789128 31.8203125 209 C20.21821526443796 211.1142876259188 9.035498998520325 213.9457363261679 -2.09765625 217.852294921875 C-2.523046875000091 217.99912719726558 -2.523046875000091 217.99912719726558 -4.67578125 218.7421875 C-5.417395019531341 219.00886230468745 -6.1590087890624545 219.27553710937502 -6.923095703125 219.55029296875 C-9.354085067139295 220.0766691775798 -10.699065341249252 219.92526621626303 -13 219 C-14.71875 216.4375 -14.71875 216.4375 -16.5 213 C-26.358633664678337 194.7914666604555 -39.73135977879292 177.4583782247846 -53.83984375 162.3359375 C-55.63697496605619 160.3925659499066 -57.36497895817979 158.41681344508834 -59.08984375 156.41015625 C-63.729918501855536 151.0959142915559 -68.65217622304249 146.0639566593686 -73.625 141.0625 C-74.11011047363286 140.5737741088867 -74.59522094726572 140.08504821777342 -75.09503173828125 139.58151245117188 C-81.44175270016217 133.21583629795282 -87.7535195023438 127.48037592204952 -95.36328125 122.67578125 C-101.11082613878943 119.02289716512496 -105.99238980397922 114.51046401952863 -110 109 C-109.41089843750001 108.657109375 -108.82179687500002 108.31421875000001 -108.21484375 107.9609375 C-105.61097739435263 106.14761032951486 -103.87713097048368 104.57262036045961 -102 102 C-101.77449035644531 98.98280334472656 -101.77449035644531 98.98280334472656 -102.147705078125 95.566650390625 C-102.27513092041022 94.32263458251953 -102.40255676269521 93.07861877441405 -102.53384399414063 91.79690551757813 C-102.68767547607422 90.54392669677736 -102.84150695800781 89.29094787597654 -103 88 C-103.12877532958987 86.88664276123046 -103.25755065917974 85.77328552246092 -103.39022827148438 84.62619018554688 C-103.79795996066127 81.26597910830685 -104.24424143228975 77.91271642333754 -104.69921875 74.55859375 C-105.02461646891766 72.07493890134253 -105.34947095675284 69.59121283040332 -105.673828125 67.107421875 C-106.18181084164621 63.24877824466563 -106.69381078864626 59.39080717276056 -107.215087890625 55.533935546875 C-107.72143303132793 51.772751665654255 -108.211573414035 48.00974130387874 -108.69921875 44.24609375 C-108.8595207214355 43.09088729858399 -109.019822692871 41.93568084716799 -109.18498229980469 40.74546813964844 C-109.322050933838 39.669871368408224 -109.45911956787108 38.59427459716795 -109.600341796875 37.486083984375 C-109.72612106323231 36.54457992553711 -109.85190032958985 35.603075866699214 -109.98149108886719 34.63304138183594 C-110.0030253011978 31.56962658748847 -109.44445476143574 29.692936989414818 -108 27 C-105.574518246764 25.65496011866003 -103.46428509598195 24.72484563415594 -100.875 23.8125 C-100.10220703124992 23.52769775390624 -99.32941406250006 23.242895507812477 -98.533203125 22.949462890625 C-76.76817134426597 15.113968818460592 -54.65362051580155 8.687979098227402 -32 4 C-31.018378906250064 3.791171874999975 -30.0367578124999 3.582343750000007 -29.025390625 3.3671875 C-26.207376875456475 2.770742526888341 -23.38633597498597 2.193181379068733 -20.5625 1.625 C-19.752727050781232 1.4569384765625273 -18.942954101562464 1.2888769531249977 -18.108642578125 1.11572265625 C-12.039853442757249 -0.04832710014505892 -6.168830645042817 -0.17024488394150694 0 0 Z " fill="#3A586F" transform="translate(1170,384)"/>
<path d="M0 0 C5.085421833851115 3.85843841718588 8.924818346211623 8.071042594489654 12.5390625 13.328125 C13.025039062500127 13.884999999999991 13.511015625000027 14.441874999999982 14.01171875 15.015625 C15.001718750000009 15.015625 15.991718750000018 15.015625 17.01171875 15.015625 C17.341718749999927 7.425625000000082 17.671718750000082 -0.16437500000006366 18.01171875 -7.984375 C33.85171874999992 -7.984375 49.691718750000064 -7.984375 66.01171875 -7.984375 C66.03433180137881 16.399104355087957 66.05273638378208 40.7825751601531 66.06353092193604 65.1660623550415 C66.06867724019548 76.48888589614126 66.0756881016589 87.81170243739052 66.087158203125 99.134521484375 C66.09715601787684 109.00870405694309 66.10358427434676 118.88288155726423 66.10580724477768 128.75706905126572 C66.10710571754157 133.9806006689305 66.11013657641615 139.20411778140442 66.1174488067627 144.42764472961426 C66.12428960477837 149.3548141532424 66.12631947810564 154.28196324091232 66.12482643127441 159.20913696289063 C66.1250991638683 161.00728910724865 66.1270560918349 162.80544200706845 66.13092422485352 164.60359001159668 C66.19113799265233 194.06616016662792 62.842234821827105 223.2632890290322 42.01953125 246.046875 C37.950114415056305 250.03712030119004 33.532556921894184 253.55395462837805 29.01171875 257.015625 C28.315624999999955 257.56218749999994 27.61953124999991 258.1087499999999 26.90234375 258.671875 C2.286150678134618 276.60925599810344 -33.68698674130496 278.12940109649026 -62.880615234375 274.18603515625 C-71.82039252616391 272.7116608160809 -80.46721266303564 270.04332383834685 -88.98828125 267.015625 C-90.03499999999997 266.646953125 -91.08171875000005 266.27828124999996 -92.16015625 265.8984375 C-113.11216386505782 257.86129172173696 -128.4358073837168 243.0511857148117 -138.2109375 222.94140625 C-138.98828125 221.015625 -138.98828125 221.015625 -138.98828125 219.015625 C-129.71273071612495 215.09180011833564 -120.43572627680555 211.32637317298418 -110.875244140625 208.14599609375 C-106.58617458377478 206.6908043311971 -102.70432194478565 204.91519087242114 -98.752197265625 202.694091796875 C-96.98828125 202.015625 -96.98828125 202.015625 -93.98828125 203.015625 C-92.515625 205.203125 -92.515625 205.203125 -90.92578125 208.015625 C-83.59619407091202 219.89727158504797 -72.42340845589877 227.56519104663903 -58.98828125 231.015625 C-41.17542412969442 235.02414418319108 -23.16501600694278 233.71389683388475 -7.05078125 224.9609375 C4.886627802351995 217.37824654582755 10.953866144572885 205.5485829409413 14.01171875 192.015625 C15.118611752357992 185.17460854995443 15.133704048558457 178.3671470093784 15.07421875 171.453125 C15.071962890624945 170.94877929687505 15.071962890624945 170.94877929687505 15.060546875 168.396484375 C15.048886444446453 165.93613352817874 15.032522534936334 163.4759126123995 15.01171875 161.015625 C13.691718750000064 161.015625 12.371718750000127 161.015625 11.01171875 161.015625 C9.640876533326264 162.62636460459157 8.276708980118428 164.24322434187366 6.9453125 165.88671875 C-3.9058648171348977 177.83397458401737 -21.080126771161304 185.82008255584174 -37.05126953125 187.29931640625 C-40.14112630566706 187.4155508134836 -43.209103062137274 187.43257711765477 -46.30078125 187.390625 C-47.39382568359383 187.38047363281248 -48.486870117187436 187.37032226562496 -49.613037109375 187.35986328125 C-74.44477899741139 186.88547680164152 -97.59707841254408 177.39226798743903 -115.3125 159.84765625 C-133.86003597589774 140.21705247988916 -142.42709354156443 114.92092058525077 -142.30078125 88.203125 C-142.29586669921878 86.96989501953135 -142.29095214843755 85.73666503906247 -142.285888671875 84.466064453125 C-142.17193467508957 75.60862481581216 -141.50985740433157 67.54863870625786 -138.98828125 59.015625 C-138.624765625 57.760078125000064 -138.26125000000002 56.5045312499999 -137.88671875 55.2109375 C-130.58540814000924 31.222638119650583 -115.78713336563214 10.698367530654423 -93.8125 -1.7890625 C-64.42823901525594 -17.29649808198269 -28.16078119167878 -18.70023117042183 0 0 Z M-78.9921875 49.13671875 C-89.23616764046199 61.19496751145084 -92.08433152697705 77.61872825198839 -90.98828125 93.015625 C-88.64907323655052 111.82757515858088 -80.33074557242912 124.1540034286379 -66.16796875 136.33203125 C-62.9536340346599 138.81478799249385 -59.75698306949516 140.5296797111705 -55.98828125 142.015625 C-55.321835937500055 142.31339843749993 -54.65539062500011 142.61117187500008 -53.96875 142.91796875 C-41.23537065920709 147.7570989022804 -24.30906525565615 146.37042727938137 -11.98828125 141.015625 C4.001161040573606 132.19463379221156 12.059271989681974 118.96443682116819 17.01171875 102.015625 C20.996710410210653 87.7155946053831 17.908861548189634 70.37214661951543 11.44921875 57.265625 C2.511883434987112 42.24908698340482 -9.64977429787723 33.6687477903497 -26.44140625 29.390625 C-47.69243257402809 26.261639528977412 -64.41905792810849 33.71135937858253 -78.9921875 49.13671875 Z " fill="#36556C" transform="translate(1095.98828125,1461.984375)"/>
<path d="M0 0 C3.581532724708154 3.050024285120344 6.951494541518514 6.272285556556653 10.27978515625 9.595703125 C11.067402343750018 10.3717187499999 11.855019531250036 11.147734375000027 12.66650390625 11.947265625 C19.743100955212412 19.33261472670938 27.892070946570584 29.443655129533 30.27978515625 39.595703125 C14.27978515625 47.595703125 -1.72021484375 55.595703125 -17.72021484375 63.595703125 C-18.29126953125001 62.59152343749997 -18.862324218750018 61.587343749999945 -19.45068359375 60.552734375 C-31.264943468118872 40.38645944365112 -46.97041772146497 26.86326010793755 -69.97021484375 20.845703125 C-92.15231264556974 15.773052852490764 -115.88856170192958 18.702421347107475 -135.53271484375 30.470703125 C-154.32216476597455 42.64736120566499 -165.94052658962642 57.131960665709585 -174.72021484375 77.595703125 C-175.15591796875003 78.59988281250003 -175.59162109375 79.60406250000005 -176.04052734375 80.638671875 C-185.3558539406443 103.99599078647202 -182.3949421895104 134.765900972463 -172.72021484375 157.595703125 C-168.71040566645377 166.15885060081177 -163.90465692761154 173.46964485919716 -157.72021484375 180.595703125 C-157.05505859375 181.41683593750008 -156.38990234375 182.23796874999994 -155.70458984375 183.083984375 C-141.71077713667523 199.74698728360931 -121.1223463062106 209.75281348211684 -99.72021484375 212.595703125 C-76.66781508333202 214.03718471865045 -55.788696324933994 209.58273815202847 -37.72021484375 194.595703125 C-36.85783203125004 193.8957421875 -35.99544921874997 193.19578124999998 -35.10693359375 192.474609375 C-29.656702461102896 187.8348830238392 -25.443708045091853 182.88775370400208 -21.41162109375 176.978515625 C-19.969327699642463 174.94664733307013 -18.543846201959582 173.27991312554832 -16.72021484375 171.595703125 C-8.549309917002688 174.75975567110208 -0.5101775007573224 178.07297738122338 7.4072265625 181.83251953125 C15.29581333403496 185.5733497599092 23.292018576262194 189.07303401469608 31.27978515625 192.595703125 C28.084392846308788 198.75767308239847 24.528501399078095 204.19993837667766 20.09228515625 209.533203125 C19.52058593749996 210.2255908203124 18.948886718750032 210.917978515625 18.35986328125 211.63134765625 C-5.909912159487476 240.6940647831891 -39.343607262940395 257.83239665529663 -77.03271484375 261.220703125 C-116.38479825838772 263.8189799410925 -155.83215831854625 253.7218583694587 -186.25146484375 227.658203125 C-189.16309481679508 225.0604015322831 -191.94830781094493 222.34198389864196 -194.72021484375 219.595703125 C-195.44337890625002 218.92152343750013 -196.16654296874998 218.24734375000003 -196.91162109375 217.552734375 C-213.85203615696906 201.4742582386766 -226.29466984201196 177.26673045369103 -231.72021484375 154.595703125 C-231.90068359375 153.8544921875 -232.08115234374998 153.11328125 -232.26708984375 152.349609375 C-238.03051529014687 127.69928297250522 -238.21272713692935 100.09774835263943 -231.72021484375 75.595703125 C-231.5218603515625 74.82983886718739 -231.32350585937502 74.06397460937501 -231.119140625 73.27490234375 C-226.47894136876602 56.06149810204829 -217.9114267120487 39.45701741000903 -206.72021484375 25.595703125 C-206.09888671875 24.774570312499918 -205.47755859375002 23.953437500000064 -204.83740234375 23.107421875 C-191.79000084922149 6.1246705369801475 -175.56625689694795 -5.626130351662596 -156.72021484375 -15.404296875 C-155.77791015624996 -15.896718749999991 -154.83560546875003 -16.389140624999982 -153.86474609375 -16.896484375 C-145.8394384005228 -20.805938349612916 -137.34614139923644 -23.23055630242925 -128.72021484375 -25.404296875 C-127.94403808593756 -25.60474609375001 -127.16786132812501 -25.805195312500018 -126.3681640625 -26.01171875 C-82.95695458648765 -36.77847531855764 -34.86102190428642 -28.458784841534907 0 0 Z " fill="#38566D" transform="translate(677.72021484375,1398.404296875)"/>
<path d="M0 0 C15.510514687691057 13.578736258014942 27.03487794725436 31.135406999784664 31.8203125 51.31640625 C32.11679687499998 52.46496093750011 32.413281249999955 53.61351562499999 32.71875 54.796875 C36.658642705272996 72.23722573664418 36.274764882712816 91.02379416165218 31.8203125 108.31640625 C31.576679687500018 109.36957031249995 31.333046875000036 110.42273437499989 31.08203125 111.5078125 C27.38157743771785 125.52043143845208 19.70754759446936 139.7282104585347 9.8203125 150.31640625 C9.43359375 150.74824218749995 9.43359375 150.74824218749995 7.4765625 152.93359375 C-11.322191451788285 172.92142551199186 -36.98719249688918 185.66179429495514 -64.5546875 186.65234375 C-97.06388947106745 187.09481120129635 -125.52869007194147 178.61310386789228 -149.8046875 156.12890625 C-171.0342835294947 133.4805005848707 -180.13246181244313 104.73703339737949 -179.421875 74.0390625 C-178.3300139188642 47.53710764451034 -166.77298701856193 23.146270120150348 -148.26171875 4.37109375 C-146.30290331410004 2.5751648855289204 -144.2838441657625 0.9402273225559838 -142.1796875 -0.68359375 C-141.18582031250003 -1.463476562500091 -140.19195312500005 -2.2433593749999545 -139.16796875 -3.046875 C-99.46472529292191 -33.32320866488749 -38.21875651422499 -32.58234049417456 0 0 Z M-114.91162109375 39.64453125 C-125.6642249519133 53.82124115001966 -129.41182728085244 72.19526266457592 -127.6171875 89.62890625 C-125.08945777982512 105.75981301690513 -118.39220881201675 120.25034938541603 -105.45703125 130.7265625 C-92.73033224882931 139.6112391611946 -78.7828132705564 144.332906373289 -63.25 141.84765625 C-47.13141945620828 138.33087504044533 -35.21437781378677 129.63630827934276 -25.9296875 116.12109375 C-15.565248431294322 99.51022934970842 -13.807801741719118 79.91584890637364 -18.08984375 61.01171875 C-22.309514931917988 46.70415983209887 -31.146181837178574 34.28764183099861 -43.9921875 26.48828125 C-68.74101546891814 13.229980552365305 -96.43466015002195 17.892389938320093 -114.91162109375 39.64453125 Z " fill="#37556C" transform="translate(900.1796875,1472.68359375)"/>
<path d="M0 0 C9.603667185905124 8.765368518835203 14.890488740997398 21.60459194958048 16.55078125 34.328125 C10.822430783163327 35.18817815141642 5.093265465583727 36.04250107894063 -0.63671875 36.8916015625 C-2.5845426170753854 37.18105544168316 -4.532137560311867 37.472054313683884 -6.4794921875 37.7646484375 C-9.283912249417881 38.18574113321188 -12.089117526592872 38.601210604736934 -14.89453125 39.015625 C-15.760388488769422 39.14686767578132 -16.62624572753907 39.27811035156242 -17.518341064453125 39.413330078125 C-21.872255007647254 40.05084018104799 -26.03362040535194 40.47887088943321 -30.44921875 40.328125 C-30.94421874999989 39.17312500000003 -31.43921875000001 38.018125000000055 -31.94921875 36.828125 C-35.53334251691899 29.685206962747998 -41.8719022405096 23.184653049212784 -49.44921875 20.328125 C-60.89953232769449 17.253503761545062 -72.48841133603923 17.362334002642 -83.63671875 21.515625 C-88.466756385071 24.62831592037901 -92.36136510382653 28.152417707653058 -94.94921875 33.328125 C-95.77882385454518 38.30575562727063 -95.17886728305689 41.89801387520856 -92.88671875 46.390625 C-82.08877777284215 59.40352822888258 -64.20389267820724 61.165965718329744 -48.5830078125 64.741943359375 C1.613899469760554 76.24951478058074 1.613899469760554 76.24951478058074 15.30078125 97.328125 C23.285092425435096 110.99307724123673 24.61792181218243 126.30055272792674 20.92578125 141.578125 C16.768820662059625 157.23006689770727 6.829598828907137 170.11043120539625 -7.16455078125 178.33642578125 C-34.110557634776114 193.48350667660452 -66.92896674064059 194.70370483694524 -96.5400390625 187.205322265625 C-114.27879519953922 182.20055362456947 -132.8790846085219 171.1921311444321 -142.44921875 155.328125 C-145.55109804736662 149.4142616667027 -148.13962379718078 143.51542388123448 -150.0341796875 137.111328125 C-150.1672653198243 136.66291564941412 -150.1672653198243 136.66291564941412 -150.84075927734375 134.3936767578125 C-151.04155090332029 133.7120446777344 -151.24234252929682 133.03041259765632 -151.44921875 132.328125 C-145.07747935084126 131.3290953687881 -138.70537496393058 130.33241991565023 -132.3330078125 129.33740234375 C-130.16397706452835 128.9984303524202 -127.99503133801022 128.65891386489693 -125.826171875 128.31884765625 C-122.71376227948485 127.83093335494209 -119.6010549870457 127.3449600232575 -116.48828125 126.859375 C-115.51428375244132 126.70625854492187 -114.54028625488286 126.55314208984373 -113.53677368164063 126.3953857421875 C-112.63599090576167 126.25524047851559 -111.73520812988272 126.11509521484368 -110.80712890625 125.970703125 C-110.01214996337899 125.84634887695302 -109.21717102050775 125.72199462890626 -108.39810180664063 125.5938720703125 C-106.44921875 125.328125 -106.44921875 125.328125 -104.44921875 125.328125 C-104.18109374999995 125.95718749999992 -103.91296874999989 126.58625000000006 -103.63671875 127.234375 C-99.07149965993199 137.20577459146443 -92.55507955202552 143.9349987339956 -82.44921875 148.328125 C-69.1241657622329 153.14610936320173 -56.004802988555184 153.9037773283112 -42.44921875 149.328125 C-36.76908928864691 146.52526635749814 -32.155696845896955 143.1921608744433 -29.44921875 137.328125 C-28.29667850843657 132.46811265270844 -28.152599165334777 128.49482869968347 -29.38671875 123.640625 C-39.535835729352584 107.34052803316126 -62.62351078147617 105.15591095205946 -79.78515625 101.046875 C-123.69146014530543 90.47956654786617 -123.69146014530543 90.47956654786617 -136.10546875 72.6171875 C-144.3684832689528 58.54123834852794 -146.0694832816248 43.58770464796498 -142.6953125 27.80078125 C-137.7804995530896 10.506397616729373 -128.0415384435837 -0.8842959819398857 -112.44921875 -9.671875 C-111.66031249999992 -10.133359375000055 -110.87140625000006 -10.59484375000011 -110.05859375 -11.0703125 C-77.13182272077506 -29.06010461861638 -28.739320355755353 -22.86700997183243 0 0 Z " fill="#37556C" transform="translate(1426.44921875,1468.671875)"/>
<path d="M0 0 C16.170000000000073 0 32.33999999999992 0 49 0 C49.060585937500036 3.7421484374999636 49.12117187500007 7.484296874999927 49.18359375 11.33984375 C49.24532662410411 14.947205992143836 49.308737711139656 18.554535074818432 49.372314453125 22.161865234375 C49.4157400604322 24.677134960992134 49.457409294133186 27.192435629791134 49.497314453125 29.707763671875 C49.55483293373254 33.31438543738341 49.61857966994489 36.920850312297944 49.68359375 40.52734375 C49.70030624389642 41.65961898803721 49.71701873779307 42.79189422607419 49.73423767089844 43.95848083496094 C49.744210281372034 44.47898262023932 49.744210281372034 44.47898262023932 49.794677734375 47.113037109375 C49.80244987487799 47.573814010620026 49.80244987487799 47.573814010620026 49.84178161621094 49.90562438964844 C50 52 50 52 51 53 C52.564483829675964 53.12263388415499 54.134327718357326 53.177795223129124 55.703369140625 53.205322265625 C56.203850173950286 53.215294876098596 56.203850173950286 53.215294876098596 58.73658752441406 53.26576232910156 C59.28085136413574 53.27411857604989 59.28085136413574 53.27411857604989 62.03515625 53.31640625 C63.14354354858392 53.337187347412055 64.25193084716807 53.35796844482411 65.39390563964844 53.37937927246094 C68.95003808347201 53.444996231271034 72.50624702732011 53.50381595754652 76.0625 53.5625 C78.4668049271886 53.60567367782369 80.87110199300446 53.64928757656685 83.275390625 53.693359375 C89.18351184955736 53.800689918826265 95.09170991283304 53.90243330610588 101 54 C101.16808109917565 59.03519138595948 101.32859003578324 64.07054681585078 101.482177734375 69.106201171875 C101.53544939777316 70.81818079834784 101.59076645569121 72.53009807947615 101.648193359375 74.241943359375 C101.73052001295855 76.7067317792696 101.80541646674737 79.17165294080655 101.87890625 81.63671875 C101.89242378234871 82.01754356384276 101.89242378234871 82.01754356384276 101.96083068847656 83.94474792480469 C102.06860278974113 87.80793624327589 101.83117322111798 91.23623176695037 101 95 C100.68790840148927 95.00515373229973 100.68790840148927 95.00515373229973 99.10853576660156 95.03123474121094 C92.63645447565864 95.13906533433146 86.1645190695915 95.25368147327299 79.692626953125 95.372314453125 C77.27436360532647 95.41573877983569 74.85606810068612 95.45740811715041 72.437744140625 95.497314453125 C68.97011604148975 95.55483603330731 65.50265097178476 95.61858186680593 62.03515625 95.68359375 C60.94662857055664 95.70030624389642 59.85810089111328 95.71701873779307 58.73658752441406 95.73423767089844 C57.73562545776372 95.75418289184563 56.73466339111337 95.77412811279305 55.703369140625 95.794677734375 C54.817345123291034 95.81022201538076 53.93132110595707 95.82576629638675 53.01844787597656 95.84178161621094 C51 96 51 96 50 97 C49.888730934203295 99.90469806356919 49.842598031330226 102.7858351583368 49.8388671875 105.69140625 C49.83390228271492 106.60368484497076 49.828937377929606 107.51596343994152 49.823822021484375 108.45588684082031 C49.80915055616333 111.49143211090677 49.8023877062019 114.52692500906119 49.796875 117.5625 C49.79112459061298 119.66943361352332 49.78536684447795 121.77636720703458 49.77960205078125 123.88330078125 C49.76907581704336 128.3120142067014 49.763244790774706 132.74070940733668 49.759765625 137.16943359375 C49.754298532949406 142.83080989693667 49.73031564389953 148.49194353650432 49.7017936706543 154.1532440185547 C49.68311491661825 158.51142056075378 49.677958749064146 162.86953950442626 49.676429748535156 167.22775268554688 C49.67341101411989 169.31364254488085 49.66540891413547 171.39953157776085 49.652244567871094 173.48538208007813 C49.6350860502439 176.41491740624292 49.63708902557005 179.34387156001412 49.6435546875 182.2734375 C49.634339904785065 183.12782913208002 49.62512512207036 183.98222076416005 49.615631103515625 184.8625030517578 C49.672401596900045 193.12219920272128 51.52391820323555 200.34856031242407 57.2578125 206.49609375 C64.06380253199177 212.37121967447706 71.94901422980888 213.33998012757525 80.65625 213.296875 C86.38564900495066 212.78819004161642 91.59457601351846 210.8693757953249 97 209 C98.31999999999994 208.67000000000007 99.63999999999987 208.33999999999992 101 208 C101.66000000000008 222.19000000000005 102.31999999999994 236.3800000000001 103 251 C79.34482993250367 260.0981423336525 55.79157090593253 262.39358262494557 31.93359375 252.4453125 C27.2090921068866 250.11766189021046 23.079189445764996 247.31976587873442 19 244 C18.688046875000055 243.75056640625007 18.688046875000055 243.75056640625007 17.109375 242.48828125 C6.803764703224033 233.2735801513063 0.940965468966624 218.8644258562988 -0.2356586456298828 205.2790756225586 C-0.6216993806706341 197.62053026023545 -0.5813168759575547 189.95524168593693 -0.57421875 182.2890625 C-0.5866815772519658 179.8242392491902 -0.6010206586186086 177.3594248416532 -0.6171417236328125 174.89462280273438 C-0.6549356705354512 168.4540418148988 -0.670319436716909 162.0136142657525 -0.679931640625 155.57293701171875 C-0.6997859122880072 145.21621238287844 -0.7563817681896126 134.85960309168172 -0.8086948394775391 124.50300216674805 C-0.8240720211617827 120.88607516352317 -0.8312340419979591 117.26920615324593 -0.8368377685546875 113.65225219726563 C-0.8438478148095783 111.45648162675025 -0.850948237185321 109.26071134223912 -0.858154296875 107.06494140625 C-0.8576255798338934 106.05417037963866 -0.8570968627930142 105.04339935302733 -0.8565521240234375 104.00199890136719 C-0.8605603027344841 103.08833053588864 -0.8645684814453034 102.1746621704101 -0.8686981201171875 101.23330688476563 C-0.8699553966521307 100.43515878677363 -0.8712126731873013 99.63701068878163 -0.8725080490112305 98.81467628479004 C-1 97 -1 97 -2 96 C-4.143866569243528 95.84141157667932 -6.292668383955288 95.74870701866803 -8.44140625 95.68359375 C-9.616467285156205 95.64548583984379 -10.791528320312409 95.60737792968757 -12.002197265625 95.568115234375 C-12.754647216796911 95.54656372070303 -12.754647216796911 95.54656372070303 -16.5625 95.4375 C-21.326874999999973 95.29312499999992 -26.091249999999945 95.14875000000006 -31 95 C-31 81.47000000000003 -31 67.94000000000005 -31 54 C-16.562499999997726 53.5625 -16.562499999997726 53.5625 -12.002197265625 53.431884765625 C-10.827136230468795 53.393776855468786 -9.652075195312591 53.35566894531257 -8.44140625 53.31640625 C-7.836553955078216 53.29807739257808 -7.836553955078216 53.29807739257808 -4.775634765625 53.205322265625 C-2 53 -2 53 -1 52 C-0.8771804783796142 50.374207823412235 -0.8221749632248248 48.743229962613896 -0.794677734375 47.113037109375 C-0.7747325134278071 46.07203353881846 -0.7547872924803869 45.03102996826169 -0.7342376708984375 43.95848083496094 C-0.7258814239501135 43.39234321594245 -0.7258814239501135 43.39234321594245 -0.68359375 40.52734375 C-0.6628126525879452 39.37456436157231 -0.6420315551758904 38.22178497314462 -0.6206207275390625 37.03407287597656 C-0.5550003628497961 33.335278434649126 -0.49618244833391145 29.636410406618324 -0.4375 25.9375 C-0.394326647480284 23.4368412107915 -0.3507127600116746 20.93618998534771 -0.306640625 18.435546875 C-0.1984736653728305 12.290439036556336 -0.09949297730008766 6.145279002172629 0 0 Z " fill="#35546C" transform="translate(1486,1400)"/>
<path d="M0 0 C16.5 0 33 0 50 0 C50.60872152090997 14.000594980928327 51.146337874568644 27.868066202175896 51.113525390625 41.859130859375 C51.113242006794735 43.60634357048434 51.113404188210325 45.353556399813215 51.11396789550781 47.10076904296875 C51.11424998125858 51.75836030228584 51.10845038732123 56.41592479115616 51.101393938064575 61.07350993156433 C51.095060525691224 65.9727976905001 51.094548823066816 70.87208634202898 51.09336853027344 75.77137756347656 C51.09028422942583 85.0106432586972 51.08211074441283 94.24989684861043 51.072019040584564 103.48915725946426 C51.06076679033731 114.02395044322793 51.05532469678678 124.55874426407172 51.050323605537415 135.09354197978973 C51.03992505743781 156.72903469279913 51.02238297071494 178.36451657787688 51 200 C46.06155542966235 201.76718997462967 41.77866004943894 202.27998302715764 36.56640625 202.23046875 C35.77024398803701 202.23001052856443 34.974081726074246 202.22955230712887 34.15379333496094 202.2290802001953 C32.47710674655286 202.22607172369317 30.800422604214646 202.21822773785948 29.123779296875 202.205810546875 C26.573953824498858 202.18758188321772 24.02449318857157 202.1853010082741 21.474609375 202.185546875 C19.83853856426458 202.18062947875433 18.20247018820146 202.17480019515983 16.56640625 202.16796875 C15.81202774047847 202.16685592651356 15.05764923095694 202.16574310302735 14.280410766601563 202.1645965576172 C13.55953781127937 202.15821670532227 12.83866485595695 202.15183685302736 12.095947265625 202.145263671875 C11.784117507934525 202.14335777282713 11.784117507934525 202.14335777282713 10.206069946289063 202.1337127685547 C7.119862121566257 201.94665369852237 4.060796699619232 201.43725667137414 1 201 C0.6700000000000728 134.67000000000007 0.33999999999991815 68.33999999999992 0 0 Z " fill="#35536B" transform="translate(1200,1454)"/>
<path d="M0 0 C7.234121879524764 6.086860259864352 11.508937295603573 12.860087741705684 12.5234375 22.33984375 C12.791226222756677 30.99364773802813 10.1256294256832 38.63680071836211 4.82421875 45.515625 C-1.552871846266953 52.13549823318067 -8.586499814792433 54.69970512619284 -17.58984375 55.42578125 C-25.73219945294659 55.185357361133356 -33.39165965181155 52.273531274136076 -39.26953125 46.6171875 C-44.685914601724335 40.783122845033176 -48.299361183333986 33.649636019909394 -48.875 25.6328125 C-48.38552233197561 17.932493088395404 -45.639115800508534 9.809429351892732 -40.6875 3.83203125 C-29.604147435580217 -5.824751182365844 -12.412081153815961 -8.625949924162796 0 0 Z " fill="#345369" transform="translate(1243.71484375,1371.88671875)"/>
<path d="M0 0 C0 0.9900000000000091 0 1.9800000000000182 0 3 C0.9900000000000091 3 1.9800000000000182 3 3 3 C3 3.990000000000009 3 4.980000000000018 3 6 C3.8043749999999363 5.9793750000000045 4.6087500000001 5.958750000000009 5.4375 5.9375 C8 6 8 6 9 7 C10.85287501547964 7.072265016204369 12.70833877567975 7.083812197980706 14.5625 7.0625 C15.574414062499955 7.053476562500009 16.58632812499991 7.044453125000018 17.62890625 7.03515625 C18.41136718749999 7.0235546874999955 19.193828124999982 7.011953124999991 20 7 C20 10.300000000000011 20 13.600000000000023 20 17 C21.980000000000018 17.329999999999984 23.960000000000036 17.660000000000025 26 18 C25.339999999999918 20.970000000000027 24.680000000000064 23.939999999999998 24 27 C24.660000000000082 27 25.319999999999936 27 26 27 C25.814374999999927 27.618749999999977 25.628750000000082 28.237499999999955 25.4375 28.875 C25 31 25 31 26 33 C25.00999999999999 33.33000000000004 24.019999999999982 33.65999999999997 23 34 C22.466328125000018 33.503710937500045 21.932656250000036 33.00742187499998 21.3828125 32.49609375 C17.394555195349994 28.859741501642702 13.399323904378434 25.481224833994588 8.9375 22.4375 C2.499661658920786 18.042148473197926 -3.3844464571868684 13.346386121368141 -8 7 C-5.3599999999999 4.689999999999998 -2.7200000000000273 2.3799999999999955 0 0 Z " fill="#304B5F" transform="translate(1068,486)"/>
<path d="M0 0 C2 3 2 3 4 11 C-53.75 11 -111.5 11 -171 11 C-171 10.669999999999959 -171 10.340000000000032 -171 10 C-114.90000000000009 10 -58.799999999999955 10 -1 10 C-1.3299999999999272 8.350000000000023 -1.6600000000000819 6.7000000000000455 -2 5 C-1.3399999999999181 5 -0.6800000000000637 5 0 5 C0 3.3500000000000227 0 1.7000000000000455 0 0 Z " fill="#335066" transform="translate(1150,705)"/>
<path d="M0 0 C0.6600000000000819 0 1.3199999999999363 0 2 0 C2.660000000000082 0.9900000000000091 3.3199999999999363 1.9800000000000182 4 3 C6.1640625 3.51171875 6.1640625 3.51171875 8.625 3.6875 C9.44226562499989 3.753242187500007 10.259531250000009 3.8189843750000136 11.1015625 3.88671875 C11.728046875000018 3.9241015625000273 12.354531250000036 3.9614843749999977 13 4 C13 4.660000000000025 13 5.319999999999993 13 6 C13.660000000000082 6 14.319999999999936 6 15 6 C15 6.660000000000025 15 7.319999999999993 15 8 C15.660000000000082 8 16.319999999999936 8 17 8 C17 11.300000000000011 17 14.600000000000023 17 18 C8.742889434457084 17.48393058965354 2.3360717232462775 9.636225757678858 -3 4 C-1.625 2 -1.625 2 0 0 Z " fill="#253642" transform="translate(1063,490)"/>
<path d="M0 0 C-0.6600000000000819 2.9700000000000273 -1.3199999999999363 5.939999999999998 -2 9 C-1.3399999999999181 9 -0.6800000000000637 9 0 9 C-0.18562500000007276 9.618749999999977 -0.37124999999991815 10.237499999999955 -0.5625 10.875 C-1 13 -1 13 0 15 C-0.9900000000000091 15.330000000000041 -1.9800000000000182 15.659999999999968 -3 16 C-4.008943721931928 15.072132112866143 -5.006909072042845 14.13231567451487 -6 13.1875 C-6.556874999999991 12.665429687500023 -7.113749999999982 12.143359375000045 -7.6875 11.60546875 C-9 10 -9 10 -9 7 C-10.319999999999936 6.670000000000016 -11.6400000000001 6.339999999999975 -13 6 C-12.670000000000073 4.350000000000023 -12.339999999999918 2.6999999999999886 -12 1 C-11.670000000000073 1.660000000000025 -11.339999999999918 2.319999999999993 -11 3 C-10.298749999999927 2.5049999999999955 -9.597500000000082 2.009999999999991 -8.875 1.5 C-5.628802809830404 -0.19366809921888262 -3.606598440001335 -0.25162314697683996 0 0 Z " fill="#345068" transform="translate(1094,504)"/>
<path d="" fill="#1A2334" transform="translate(0,0)"/>
</svg>
